<?xml version="1.0" encoding="UTF-8" standalone="no"?><!-- Generator: Gravit.io --><svg xmlns="http://www.w3.org/2000/svg" xmlns:xlink="http://www.w3.org/1999/xlink" style="isolation:isolate" viewBox="0 0 50 50" width="50pt" height="50pt"><defs><clipPath id="_clipPath_z9seN2HPuWpAkky36uOMbMt8vGz7GPvh"><rect width="50" height="50"/></clipPath></defs><g clip-path="url(#_clipPath_z9seN2HPuWpAkky36uOMbMt8vGz7GPvh)"><path d="M 2.467 17.67 L 28.864 17.67 C 29.673 17.67 30.33 18.327 30.33 19.136 L 30.33 45.534 C 30.33 46.343 29.673 47 28.864 47 L 2.467 47 C 1.657 47 1 46.343 1 45.534 L 1 19.136 C 1 18.327 1.657 17.67 2.467 17.67 Z" style="stroke:none;fill:#E11FAE;stroke-miterlimit:10;"/><path d="M 2.467 17.67 L 28.864 17.67 C 29.673 17.67 30.33 18.327 30.33 19.136 L 30.33 45.534 C 30.33 46.343 29.673 47 28.864 47 L 2.467 47 C 1.657 47 1 46.343 1 45.534 L 1 19.136 C 1 18.327 1.657 17.67 2.467 17.67 Z" style="fill:none;stroke:#000000;stroke-width:4;stroke-linecap:square;stroke-miterlimit:2;"/><rect x="14.037" y="30.704" width="3.259" height="3.259" transform="matrix(1,0,0,1,0,0)" fill="rgb(23,23,23)"/><rect x="6.704" y="23.37" width="3.259" height="3.259" transform="matrix(1,0,0,1,0,0)" fill="rgb(23,23,23)"/><rect x="22.185" y="38.852" width="3.259" height="3.259" transform="matrix(1,0,0,1,0,0)" fill="rgb(23,23,23)"/><rect x="6.704" y="38.852" width="3.259" height="3.259" transform="matrix(1,0,0,1,0,0)" fill="rgb(23,23,23)"/><rect x="5" y="59" width="32" height="2" transform="matrix(1,0,0,1,0,0)" fill="rgb(31,187,244)"/><path d="M 3.85 20.93 L 3.85 20.93 C 4.076 20.93 4.26 21.295 4.26 21.744 L 4.26 34.776 C 4.26 35.225 4.076 35.59 3.85 35.59 L 3.85 35.59 C 3.624 35.59 3.44 35.225 3.44 34.776 L 3.44 21.744 C 3.44 21.295 3.624 20.93 3.85 20.93 Z" style="stroke:none;fill:#EBEBEB;stroke-miterlimit:10;"/><path d="M 20.396 3 L 46.793 3 C 47.603 3 48.26 3.657 48.26 4.466 L 48.26 30.864 C 48.26 31.673 47.603 32.33 46.793 32.33 L 20.396 32.33 C 19.587 32.33 18.93 31.673 18.93 30.864 L 18.93 4.466 C 18.93 3.657 19.587 3 20.396 3 Z" style="stroke:none;fill:#E11FAE;stroke-miterlimit:10;"/><path d="M 20.397 3 L 46.794 3 C 47.603 3 48.26 3.657 48.26 4.466 L 48.26 30.864 C 48.26 31.673 47.603 32.33 46.794 32.33 L 20.397 32.33 C 19.587 32.33 18.93 31.673 18.93 30.864 L 18.93 4.466 C 18.93 3.657 19.587 3 20.397 3 Z" style="fill:none;stroke:#000000;stroke-width:4;stroke-linecap:square;stroke-miterlimit:2;"/><rect x="31.963" y="16.037" width="3.259" height="3.259" transform="matrix(1,0,0,1,0,0)" fill="rgb(23,23,23)"/><rect x="24.63" y="8.704" width="3.259" height="3.259" transform="matrix(1,0,0,1,0,0)" fill="rgb(23,23,23)"/><rect x="40.111" y="24.185" width="3.259" height="3.259" transform="matrix(1,0,0,1,0,0)" fill="rgb(23,23,23)"/><rect x="20.556" y="29.074" width="26.074" height="1.63" transform="matrix(1,0,0,1,0,0)" fill="rgb(31,187,244)"/><path d="M 21.78 6.26 L 21.78 6.26 C 22.006 6.26 22.19 6.625 22.19 7.075 L 22.19 20.115 C 22.19 20.565 22.006 20.93 21.78 20.93 L 21.78 20.93 C 21.554 20.93 21.37 20.565 21.37 20.115 L 21.37 7.075 C 21.37 6.625 21.554 6.26 21.78 6.26 Z" style="stroke:none;fill:#EBEBEB;stroke-miterlimit:10;"/></g></svg>