<?xml version="1.0" encoding="UTF-8" standalone="no"?><!-- Generator: Gravit.io --><svg xmlns="http://www.w3.org/2000/svg" xmlns:xlink="http://www.w3.org/1999/xlink" style="isolation:isolate" viewBox="0 0 50 50" width="50pt" height="50pt"><defs><clipPath id="_clipPath_VRAQ0eE2uka0qtMDp2AfjwAq6gXTCs8J"><rect width="50" height="50"/></clipPath></defs><g clip-path="url(#_clipPath_VRAQ0eE2uka0qtMDp2AfjwAq6gXTCs8J)"><mask id="_mask_4iyo6hmgMPg9ATihEwm7wLrC1jdHhRY4"><path d=" M 46 13.981 L 46 25 L 46 36.019 C 46 36.629 45.571 37.372 45.043 37.677 L 35.5 43.187 L 25.957 48.696 C 25.429 49.001 24.571 49.001 24.043 48.696 L 14.5 43.187 L 4.957 37.677 C 4.429 37.372 4 36.629 4 36.019 L 4 25 L 4 13.981 C 4 13.371 4.429 12.628 4.957 12.323 L 14.5 6.813 L 24.043 1.304 C 24.571 0.999 25.429 0.999 25.957 1.304 L 35.5 6.813 L 45.043 12.323 C 45.571 12.628 46 13.371 46 13.981 Z " fill="white" stroke="none"/></mask><path d=" M 46 13.981 L 46 25 L 46 36.019 C 46 36.629 45.571 37.372 45.043 37.677 L 35.5 43.187 L 25.957 48.696 C 25.429 49.001 24.571 49.001 24.043 48.696 L 14.5 43.187 L 4.957 37.677 C 4.429 37.372 4 36.629 4 36.019 L 4 25 L 4 13.981 C 4 13.371 4.429 12.628 4.957 12.323 L 14.5 6.813 L 24.043 1.304 C 24.571 0.999 25.429 0.999 25.957 1.304 L 35.5 6.813 L 45.043 12.323 C 45.571 12.628 46 13.371 46 13.981 Z " fill="rgb(240,153,153)"/><path d=" M 46 13.981 L 46 25 L 46 36.019 C 46 36.629 45.571 37.372 45.043 37.677 L 35.5 43.187 L 25.957 48.696 C 25.429 49.001 24.571 49.001 24.043 48.696 L 14.5 43.187 L 4.957 37.677 C 4.429 37.372 4 36.629 4 36.019 L 4 25 L 4 13.981 C 4 13.371 4.429 12.628 4.957 12.323 L 14.5 6.813 L 24.043 1.304 C 24.571 0.999 25.429 0.999 25.957 1.304 L 35.5 6.813 L 45.043 12.323 C 45.571 12.628 46 13.371 46 13.981 Z " fill="rgb(240,153,153)" mask="url(#_mask_4iyo6hmgMPg9ATihEwm7wLrC1jdHhRY4)" vector-effect="non-scaling-stroke" stroke-width="4" stroke="rgb(255,255,255)" stroke-linejoin="miter" stroke-linecap="square" stroke-miterlimit="3"/><rect x="22.693" y="13.678" width="4.614" height="22.643" transform="matrix(0.707,-0.707,0.707,0.707,-10.355,25)" fill="rgb(235,235,235)"/><rect x="22.693" y="13.678" width="4.614" height="22.643" transform="matrix(0.707,0.707,-0.707,0.707,25,-10.355)" fill="rgb(235,235,235)"/></g></svg>