<?xml version="1.0" encoding="UTF-8" standalone="no"?><!-- Generator: Gravit.io --><svg xmlns="http://www.w3.org/2000/svg" xmlns:xlink="http://www.w3.org/1999/xlink" style="isolation:isolate" viewBox="0 0 220 70" width="220pt" height="70pt"><defs><clipPath id="_clipPath_Nm4K1MBtZH6V13eFF5yiHdYFgHI84hTa"><rect width="220" height="70"/></clipPath></defs><g clip-path="url(#_clipPath_Nm4K1MBtZH6V13eFF5yiHdYFgHI84hTa)"><path d="M 4.8 27 L 37.2 27 C 38.193 27 39 27.807 39 28.8 L 39 61.2 C 39 62.193 38.193 63 37.2 63 L 4.8 63 C 3.807 63 3 62.193 3 61.2 L 3 28.8 C 3 27.807 3.807 27 4.8 27 Z" style="stroke:none;fill:#E11FAE;stroke-miterlimit:10;"/><path d="M 4.8 27 L 37.2 27 C 38.193 27 39 27.807 39 28.8 L 39 61.2 C 39 62.193 38.193 63 37.2 63 L 4.8 63 C 3.807 63 3 62.193 3 61.2 L 3 28.8 C 3 27.807 3.807 27 4.8 27 Z" style="fill:none;stroke:#000000;stroke-width:4;stroke-linecap:square;stroke-miterlimit:2;"/><rect x="19" y="43" width="4" height="4" transform="matrix(1,0,0,1,0,0)" fill="rgb(23,23,23)"/><rect x="10" y="34" width="4" height="4" transform="matrix(1,0,0,1,0,0)" fill="rgb(23,23,23)"/><rect x="29" y="53" width="4" height="4" transform="matrix(1,0,0,1,0,0)" fill="rgb(23,23,23)"/><rect x="10" y="53" width="4" height="4" transform="matrix(1,0,0,1,0,0)" fill="rgb(23,23,23)"/><rect x="5" y="59" width="32" height="2" transform="matrix(1,0,0,1,0,0)" fill="rgb(31,187,244)"/><path d="M 6.5 31 L 6.5 31 C 6.776 31 7 31.448 7 32 L 7 48 C 7 48.552 6.776 49 6.5 49 L 6.5 49 C 6.224 49 6 48.552 6 48 L 6 32 C 6 31.448 6.224 31 6.5 31 Z" style="stroke:none;fill:#EBEBEB;stroke-miterlimit:10;"/><path d="M 26.8 9 L 59.2 9 C 60.193 9 61 9.807 61 10.8 L 61 43.2 C 61 44.193 60.193 45 59.2 45 L 26.8 45 C 25.807 45 25 44.193 25 43.2 L 25 10.8 C 25 9.807 25.807 9 26.8 9 Z" style="stroke:none;fill:#E11FAE;stroke-miterlimit:10;"/><path d="M 26.8 9 L 59.2 9 C 60.193 9 61 9.807 61 10.8 L 61 43.2 C 61 44.193 60.193 45 59.2 45 L 26.8 45 C 25.807 45 25 44.193 25 43.2 L 25 10.8 C 25 9.807 25.807 9 26.8 9 Z" style="fill:none;stroke:#000000;stroke-width:4;stroke-linecap:square;stroke-miterlimit:2;"/><rect x="41" y="25" width="4" height="4" transform="matrix(1,0,0,1,0,0)" fill="rgb(23,23,23)"/><rect x="32" y="16" width="4" height="4" transform="matrix(1,0,0,1,0,0)" fill="rgb(23,23,23)"/><rect x="51" y="35" width="4" height="4" transform="matrix(1,0,0,1,0,0)" fill="rgb(23,23,23)"/><rect x="27" y="41" width="32" height="2" transform="matrix(1,0,0,1,0,0)" fill="rgb(31,187,244)"/><path d="M 28.5 13 L 28.5 13 C 28.776 13 29 13.448 29 14 L 29 30 C 29 30.552 28.776 31 28.5 31 L 28.5 31 C 28.224 31 28 30.552 28 30 L 28 14 C 28 13.448 28.224 13 28.5 13 Z" style="stroke:none;fill:#EBEBEB;stroke-miterlimit:10;"/><g clip-path="url(#_clipPath_QrY4mrFZm9DCT02sNWAxdiEyz9x4bXaa)"><text transform="matrix(1,0,0,1,70,39.057)" style="font-family:'Segoe UI';font-weight:700;font-size:26px;font-style:normal;fill:#e11fae;stroke:none;">Play</text><text transform="matrix(1,0,0,1,121.34,39.057)" style="font-family:'Segoe UI';font-weight:700;font-size:26px;font-style:normal;fill:#1fbbf4;stroke:none;">Hash</text></g><defs><clipPath id="_clipPath_QrY4mrFZm9DCT02sNWAxdiEyz9x4bXaa"><rect x="0" y="0" width="117" height="49" transform="matrix(1,0,0,1,70,11)"/></clipPath></defs></g></svg>